# xmcd
#
# Track frame offsets:
#	150
#	19422
#	32257
#	47682
#	57542
#	72297
#	84820
#	96225
#	109575
#	126250
#	140575
#	164007
#
# Disc length: 2377 seconds
# Revision: 0
# Processed by: cddbd v1.5.2PL0 Copyright (c) Steve Scherf et al.
# Submitted via: dBpowerAMP V12.0
#
DISCID=a209470c
DTITLE=Crucial Smith - Morning Light
DYEAR=2000
DGENRE=Bluegrass
TTITLE0=Cry
TTITLE1=Norfolk Captain
TTITLE2=Rebuild the Union
TTITLE3=Please, Please Me
TTITLE4=Falling in Love
TTITLE5=Silver Moonlight
TTITLE6=Slow It Down
TTITLE7=Last Love Letter
TTITLE8=King of Babylon
TTITLE9=Morning Light
TTITLE10=St. Anne's Reel
TTITLE11=Light of the Moon
EXTD=
EXTT0=
EXTT1=
EXTT2=
EXTT3=
EXTT4=
EXTT5=
EXTT6=
EXTT7=
EXTT8=
EXTT9=
EXTT10=
EXTT11=
PLAYORDER=
